<?xml version="1.0" encoding="utf-8"?>
<!-- Generator: Adobe Illustrator 26.0.1, SVG Export Plug-In . SVG Version: 6.00 Build 0)  -->
<svg version="1.1" id="Layer_1" xmlns="http://www.w3.org/2000/svg" xmlns:xlink="http://www.w3.org/1999/xlink" x="0px" y="0px"
	 viewBox="0 0 288 560" style="enable-background:new 0 0 288 560;" xml:space="preserve">
<g>
	<g>
		<path d="M72.6,259.77c-3.04-0.12-3.83-4.28-3.89-6.66c-0.11-4.22,1.09-8.63,2.42-12.61c2.77-8.22,7.22-16.17,12.29-23.18
			c4.81-6.66,11.19-12.49,19.46-14.2c3.79-0.78,7.89-0.62,11.48,0.91c3.76,1.61,6.64,4.67,8.9,8c2.8,4.13,5.04,8.68,7.05,13.23
			c1.08,2.44,2.07,4.93,2.97,7.44c0.4,1.11,0.91,2.27,1.13,3.43c0.07,0.35,0.11,0.74,0.06,1.1c-0.03,0.23-0.22,0.53-0.03,0.51
			c-1.91,0.16-1.93,3.16,0,3c5.28-0.44,2.18-7.68,1.17-10.38c-1.9-5.08-4.14-10.03-6.73-14.79c-2.22-4.08-4.77-8.19-8.37-11.19
			c-3.57-2.97-7.91-4.58-12.55-4.71c-9.67-0.28-18.18,5.23-24.21,12.39c-3.13,3.72-5.77,7.82-8.19,12.02
			c-2.58,4.47-4.93,9.1-6.72,13.95c-1.02,2.76-1.85,5.59-2.39,8.48c-0.46,2.4-0.88,4.94-0.69,7.39c0.32,4.01,2.22,8.69,6.85,8.87
			C74.53,262.84,74.52,259.84,72.6,259.77L72.6,259.77z"/>
	</g>
</g>
<g>
	<g>
		<path d="M68.82,243.83c27.71,5.49,56.86,2.32,82.76-8.94c11.24-4.89,25.02-11.63,29.07-24.22c1.71-5.32,1.52-11.58-1.4-16.45
			c-2.73-4.55-7.61-7.18-12.87-7.25c-5.2-0.07-10.31,2.11-14.23,5.44c-4.72,4.01-7.2,9.95-8.05,15.99
			c-1.99,14.23,3.98,28.22,8.13,41.52c2.18,6.98,4.12,14.11,4.64,21.42c0.46,6.39-0.21,12.81-1.99,18.96
			c-3.47,12.01-11.25,22.68-22.41,28.58c-10.71,5.66-24.25,6.94-35.4,1.74c-10.58-4.93-18.49-15.25-20.28-26.81
			c-0.44-2.83-0.44-5.72-0.09-8.55c0.24-1.91-2.77-1.89-3,0c-1.43,11.58,3.61,23.33,12.01,31.22c8.89,8.35,21.06,11.62,33.03,9.94
			c12.27-1.72,23.29-8.44,30.69-18.33c7.41-9.92,11.01-22.61,10.53-34.93c-0.57-14.6-6.63-28.13-10.49-42.02
			c-3.21-11.56-5.68-27.45,4.53-36.39c3.66-3.21,8.69-5.17,13.58-4.71c5.25,0.5,9.26,4.35,10.59,9.36
			c1.46,5.5-0.02,11.37-3.21,15.98c-3.68,5.31-9.26,9.01-14.85,12.06c-24.36,13.25-53.08,18.4-80.56,15.12
			c-3.33-0.4-6.65-0.94-9.94-1.59C67.73,240.56,66.92,243.45,68.82,243.83L68.82,243.83z"/>
	</g>
</g>
<g>
	<g>
		<path d="M154.1,238.78c1.41,4.82,3.15,9.7,5.56,14.11c2.07,3.78,5.3,7.31,9.74,8.06c3.96,0.67,7.46-1.2,9.66-4.45
			c2.27-3.35,2.98-7.53,3.2-11.48c0.31-5.64-0.57-11.35-2.48-16.66c-0.53-1.47-3.15-1.4-2.95,0.4c0.7,6.25,2.18,13.07,5.55,18.49
			c2.86,4.6,9.1,8.42,14.32,5c4.58-3.01,4.91-9.26,4.27-14.16c-0.79-6.11-3.22-12.26-7.25-16.97c-1.88-2.2-4.33-3.93-7.24-4.32
			c-3.21-0.43-6.41,0.63-9.28,1.98c-4.65,2.19-9.2,6.11-9.75,11.53c-0.28,2.73,0.7,5.51,3.1,6.99c2.12,1.3,4.78,1.4,7.18,1.09
			c5.24-0.68,10.21-2.8,14.75-5.43c10.43-6.04,19.17-15.09,30.67-19.24c1.8-0.65,1.02-3.55-0.8-2.89
			c-8.86,3.2-16.18,9.15-23.76,14.54c-3.74,2.66-7.59,5.22-11.75,7.16c-1.98,0.93-4.05,1.68-6.17,2.23
			c-2.08,0.54-4.34,1.03-6.5,0.68c-5.48-0.89-3.99-7.09-1.18-10.08c1.61-1.71,3.61-2.99,5.72-3.98c2.48-1.17,5.5-2.19,8.25-1.43
			c2.38,0.65,4.22,2.59,5.6,4.55c1.58,2.24,2.88,4.7,3.81,7.28c1.61,4.46,2.77,10.02,1.14,14.64c-0.79,2.25-2.55,4.04-5.04,4.1
			c-2.79,0.08-5.23-1.62-6.84-3.79c-1.74-2.34-2.78-5.19-3.65-7.95c-1.04-3.26-1.76-6.62-2.15-10.02c-0.98,0.13-1.96,0.27-2.95,0.4
			c1.47,4.07,2.32,8.32,2.43,12.64c0.09,3.64-0.16,7.47-1.58,10.87c-1.15,2.77-3.34,5.41-6.57,5.45c-3.97,0.05-6.9-3.2-8.7-6.38
			c-2.43-4.27-4.09-9.06-5.46-13.76C156.45,236.13,153.56,236.92,154.1,238.78L154.1,238.78z"/>
	</g>
</g>
<g>
	<g>
		<path d="M223.3,212.26c-0.11,0.28-0.23,0.56-0.34,0.83c0.17-0.05,0.34-0.06,0.52-0.01c0.22,0.02,0.45,0.07,0.67,0.12
			c0.58,0.13,1.14,0.34,1.67,0.62c1.17,0.62,2.19,1.54,2.92,2.65c1.24,1.87,1.62,4.2,1.26,6.4c-0.79,4.84-4.69,8.48-9.6,8.83
			c-5.28,0.38-10.14-2.42-12.67-7.02c-2.6-4.73-2.6-10.47-0.52-15.39c1.19-2.82,3.01-5.37,5.18-7.53c2.14-2.13,5.23-4.77,8.47-3.76
			c1.85,0.58,2.64-2.32,0.8-2.89c-3.67-1.15-7.2,0.84-9.93,3.17c-2.71,2.32-5.03,5.21-6.62,8.41c-3.09,6.22-3.35,13.71,0.2,19.82
			c3.42,5.89,10.18,9.16,16.91,7.95c6.28-1.13,10.85-6.81,10.89-13.16c0.02-3.5-1.49-6.88-4.26-9.06c-1.51-1.19-3.28-1.95-5.2-2.15
			c-1.64-0.17-4.02,0.93-3.26,2.96C221.08,214.85,223.99,214.07,223.3,212.26L223.3,212.26z"/>
	</g>
</g>
<g>
	<g>
		<path d="M113.13,294.53c-0.4-0.09-0.81-0.18-1.21-0.28c-0.27,0.96-0.53,1.93-0.8,2.89c7.25,1.2,14.69-1.91,18.89-7.96
			c1.1-1.59-1.5-3.09-2.59-1.51c-3.36,4.85-9.67,7.55-15.5,6.58c-0.8-0.13-1.61,0.21-1.85,1.05c-0.21,0.76,0.25,1.66,1.05,1.85
			c0.4,0.09,0.81,0.18,1.21,0.28C114.22,297.85,115.02,294.96,113.13,294.53L113.13,294.53z"/>
	</g>
</g>
<g>
	<g>
		<path d="M99.88,267.39c-2.31-0.46-4.86,0.73-5.84,2.93c-1.15,2.58,0.02,5.4,2.21,7.01c1.95,1.43,4.95,1.57,6.66-0.33
			c1.49-1.66,1.8-4.26,0.66-6.2c-1.4-2.39-4.37-3.28-6.97-2.74c0.56,0.73,1.13,1.47,1.69,2.2c0.02-0.04,0.18-0.28,0.05-0.13
			c-0.08,0.09-0.07,0.09,0.03-0.01c-0.04,0.03-0.09,0.07-0.13,0.1c0.21-0.16-0.16,0.05-0.01,0c0.18-0.05-0.35,0-0.02,0.01
			c-0.13-0.01-0.23-0.03-0.34-0.09c0.28,0.17-0.11-0.16,0.01-0.02c0.1,0.12-0.09-0.25,0-0.01c-0.02-0.05-0.04-0.11-0.06-0.16
			c0.04,0.16,0.05,0.14,0.01-0.08c0.09,0.78,0.63,1.54,1.5,1.5c0.74-0.03,1.59-0.66,1.5-1.5c-0.13-1.19-0.87-2.33-2.12-2.57
			c-1.17-0.23-2.5,0.32-3.01,1.44c-0.26,0.57-0.28,1.15,0.12,1.67c0.38,0.49,0.97,0.66,1.58,0.54c0.1-0.02,0.23-0.06,0.33-0.06
			c-0.35-0.01-0.12,0.02-0.01,0.01c0.2-0.02,0.41-0.02,0.61-0.01c0.07,0,0.15,0.01,0.22,0.01c0.04,0,0.07,0.01,0.11,0.01
			c0.17,0.02,0.15,0.02-0.07-0.01c0.17-0.04,0.49,0.1,0.65,0.15c0.07,0.02,0.14,0.04,0.21,0.07c0.03,0.01,0.07,0.02,0.1,0.04
			c0.16,0.06,0.14,0.05-0.05-0.03c0,0.01,0.47,0.24,0.49,0.25c0.08,0.05,0.16,0.09,0.23,0.15c0.08,0.05,0.3,0.17,0.01-0.01
			c0.18,0.1,0.34,0.3,0.48,0.45c0.01,0.01,0.24,0.29,0.09,0.1c-0.15-0.19,0.07,0.1,0.08,0.12c0.01,0.02,0.27,0.42,0.24,0.44
			c0,0-0.12-0.33-0.01,0.01c0.02,0.06,0.04,0.12,0.06,0.19c0.03,0.1,0.04,0.19,0.07,0.29c0.08,0.33-0.01-0.34,0-0.01
			c0.01,0.16,0.02,0.33,0.01,0.49c0,0.03-0.04,0.28-0.02,0.29c-0.08-0.07,0.07-0.34,0-0.06c-0.04,0.17-0.08,0.35-0.14,0.52
			c-0.01,0.02-0.07,0.18-0.07,0.18c0.09-0.21,0.1-0.24,0.03-0.09c-0.02,0.04-0.04,0.09-0.07,0.13c-0.04,0.07-0.08,0.14-0.12,0.21
			c-0.19,0.3-0.01-0.01,0.01,0.01c0,0-0.3,0.32-0.33,0.34c-0.2,0.2,0.07-0.07,0.08-0.05c0,0-0.22,0.15-0.24,0.16
			c-0.07,0.04-0.15,0.07-0.22,0.11c-0.09,0.04-0.06,0.03,0.1-0.04c-0.07,0.03-0.14,0.05-0.22,0.07c-0.09,0.03-0.19,0.04-0.28,0.06
			c-0.21,0.06,0.36,0,0,0c-0.14,0-0.44,0.06-0.57-0.01c0.06,0.01,0.11,0.02,0.17,0.02c-0.08-0.01-0.15-0.03-0.23-0.04
			c-0.08-0.02-0.15-0.04-0.23-0.06c-0.11-0.03-0.22-0.07-0.33-0.11c-0.36-0.12,0.26,0.14-0.07-0.03c-0.17-0.09-0.35-0.18-0.51-0.29
			c-0.05-0.03-0.36-0.27-0.08-0.04c-0.06-0.05-0.12-0.1-0.18-0.15c-0.16-0.14-0.32-0.3-0.46-0.46c-0.05-0.06-0.21-0.29-0.05-0.05
			c-0.09-0.12-0.17-0.25-0.25-0.38c-0.06-0.09-0.11-0.19-0.16-0.28c-0.02-0.05-0.17-0.43-0.06-0.11c-0.07-0.2-0.14-0.4-0.18-0.61
			c-0.02-0.08-0.03-0.17-0.05-0.25c0.06,0.37,0.01-0.05,0.01-0.11c0-0.08,0.01-0.17,0-0.26c0.01-0.17,0.01-0.14-0.02,0.08
			c0.01-0.07,0.02-0.14,0.04-0.21c0.02-0.07,0.03-0.14,0.05-0.2c0.02-0.07,0.04-0.13,0.07-0.2c0.06-0.15,0.05-0.13-0.03,0.07
			c-0.03-0.11,0.27-0.46,0.32-0.54c0.1-0.15-0.02-0.08-0.04,0.05c0.02-0.09,0.22-0.25,0.29-0.31c0.05-0.05,0.1-0.1,0.16-0.14
			c0.13-0.1,0.11-0.09-0.05,0.03c0.06-0.04,0.12-0.08,0.17-0.12c0.13-0.09,0.4-0.31,0.56-0.31c-0.02,0-0.34,0.12-0.06,0.03
			c0.12-0.04,0.23-0.08,0.35-0.11c0.04-0.01,0.23-0.08,0.26-0.06c-0.23,0.03-0.25,0.03-0.09,0.01c0.05,0,0.1-0.01,0.16-0.01
			c0.09,0,0.18,0,0.26,0c0.07,0,0.14,0.01,0.21,0.02c-0.22-0.03-0.25-0.03-0.08,0c0.77,0.15,1.66-0.22,1.85-1.05
			C101.09,268.49,100.7,267.55,99.88,267.39L99.88,267.39z"/>
	</g>
</g>
<g>
	<g>
		<path d="M125.93,261.91c1.57,0.49,2.92-1.49,1.74-2.71c-0.51-0.53-1.34-0.66-1.99-0.3c-0.55,0.31-0.73,0.8-0.88,1.37
			c-0.36,1.39-0.73,2.78-1.09,4.17c-0.18,0.69-0.46,1.43-0.45,2.15c0.01,0.98,0.59,1.86,1.57,2.11c0.41,0.11,0.86,0.07,1.29,0.07
			c0.37,0,0.74-0.01,1.11-0.01c0.74-0.01,1.47-0.01,2.21-0.02c0.78-0.01,1.54-0.69,1.5-1.5c-0.04-0.81-0.66-1.51-1.5-1.5
			c-0.97,0.01-1.94,0.02-2.9,0.02c-0.23,0-0.46,0-0.69,0.01c-0.11,0-0.23-0.02-0.33,0c-0.12,0-0.08,0.01,0.12,0.03
			c0.05,0.02,0.1,0.05,0.15,0.07c0.27,0.17,0.38,0.4,0.47,0.68c0.1,0.32,0.01-0.07,0.01-0.06c-0.04,0.23-0.05,0.29-0.02,0.17
			c0.01-0.05,0.02-0.09,0.03-0.13c0.02-0.1,0.05-0.19,0.07-0.29c0.24-0.92,0.48-1.84,0.72-2.76c0.12-0.45,0.23-0.9,0.35-1.35
			c0.06-0.25,0.13-0.49,0.19-0.74c0.03-0.11,0.06-0.22,0.09-0.34c0.03-0.13,0.2-0.44-0.01-0.1c-0.18,0.18-0.36,0.36-0.54,0.54
			c0.02-0.01,0.04-0.02,0.05-0.02c-0.25,0.07-0.5,0.14-0.76,0.2c-0.09-0.01-0.18-0.02-0.28-0.03c-0.22-0.13-0.44-0.26-0.66-0.39
			c0.02,0.01,0.03,0.03,0.05,0.04c-0.13-0.22-0.26-0.44-0.39-0.66c0.01,0.02,0.01,0.04,0.02,0.06c0-0.27,0-0.53,0-0.8
			c-0.01,0.02-0.01,0.05-0.02,0.07c0.13-0.22,0.26-0.44,0.39-0.66c0.06-0.05,0.12-0.1,0.18-0.14c0.25-0.07,0.5-0.14,0.76-0.2
			c0.08,0.01,0.16,0.02,0.24,0.04c-0.75-0.23-1.67,0.28-1.85,1.05C124.7,260.88,125.13,261.66,125.93,261.91L125.93,261.91z"/>
	</g>
</g>
</svg>
